<svg width="33" height="33" viewBox="0 0 33 33" fill="none" xmlns="http://www.w3.org/2000/svg">
<circle cx="16.5" cy="16.5" r="16.5" fill="#59A7D6"/>
<path d="M16.9999 16L13.9999 19M23.2879 9.03098C23.3828 8.99823 23.4849 8.99284 23.5827 9.01542C23.6806 9.03801 23.77 9.08765 23.841 9.15869C23.9119 9.22972 23.9614 9.31927 23.9838 9.41711C24.0063 9.51495 24.0007 9.61713 23.9679 9.71198L18.0439 26.642C18.0084 26.7432 17.9434 26.8314 17.8572 26.8952C17.771 26.959 17.6676 26.9954 17.5605 26.9997C17.4533 27.004 17.3473 26.976 17.2563 26.9194C17.1652 26.8627 17.0933 26.78 17.0499 26.682L13.8309 19.44C13.7772 19.3192 13.6806 19.2227 13.5599 19.169L6.31786 15.949C6.22016 15.9054 6.13778 15.8334 6.08137 15.7425C6.02495 15.6516 5.9971 15.5458 6.00141 15.4389C6.00572 15.332 6.04198 15.2288 6.10553 15.1427C6.16907 15.0567 6.25697 14.9916 6.35786 14.956L23.2879 9.03098Z" stroke="white" stroke-width="1.5" stroke-linecap="round" stroke-linejoin="round"/>
</svg>
